<svg width="24" height="24" viewBox="0 0 24 24" fill="none" xmlns="http://www.w3.org/2000/svg">
<g id="Diet Plan">
<path id="Vector" d="M21.9301 6.75996L18.5601 20.29C18.4432 20.7792 18.1641 21.2145 17.7683 21.525C17.3725 21.8355 16.8832 22.0029 16.3801 22H3.24014C1.73014 22 0.650144 20.52 1.10014 19.07L5.31014 5.54996C5.45082 5.09146 5.73432 4.6899 6.11929 4.40388C6.50426 4.11785 6.97055 3.96231 7.45014 3.95996H19.7501C20.7001 3.95996 21.4901 4.53996 21.8201 5.33996C22.0101 5.76996 22.0501 6.25996 21.9301 6.75996Z" stroke="#475569" stroke-width="1.5" stroke-miterlimit="10"/>
<path id="Vector_2" d="M16.0002 22H20.7802C22.0702 22 23.0802 20.9101 22.9902 19.6201L22.0002 6.00005M9.6802 6.38005L10.7202 2.06005M16.3802 6.39005L17.3202 2.05005M7.7002 12H15.7002M6.7002 16H14.7002" stroke="#475569" stroke-width="1.5" stroke-miterlimit="10" stroke-linecap="round" stroke-linejoin="round"/>
</g>
</svg>
