<svg width="24" height="24" viewBox="0 0 24 24" fill="none" xmlns="http://www.w3.org/2000/svg">
<g id="Workout">
<path id="Vector" d="M9.82 12H14.18M22.5 14.5V9.5M1.5 14.5V9.5M17.18 18C19.58 18 20.18 16.65 20.18 15V9C20.18 7.35 19.58 6 17.18 6C14.78 6 14.18 7.35 14.18 9V15C14.18 16.65 14.78 18 17.18 18ZM6.82 18C4.42 18 3.82 16.65 3.82 15V9C3.82 7.35 4.42 6 6.82 6C9.22 6 9.82 7.35 9.82 9V15C9.82 16.65 9.22 18 6.82 18Z" stroke="#475569" stroke-width="1.5" stroke-linecap="round" stroke-linejoin="round"/>
</g>
</svg>
